# xmcd
#
# Track frame offsets:
#	150
#	11844
#	27381
#	41135
#	50906
#	65221
#	76299
#	91997
#
# Disc length: 1374 seconds
#
# Revision: 2
# Processed by: cddbd v1.5.2PL0 Copyright (c) Steve Scherf et al.
# Submitted via: audiograbber 1.83.01
#
DISCID=6e055c08
DTITLE=Michael Hortig - For You
DYEAR=2011
DGENRE=
TTITLE0=Doung Suggs Stomp
TTITLE1=Betty and Dupree
TTITLE2=How Long Blues
TTITLE3=Meade Walkin
TTITLE4=For You
TTITLE5=Sweet Patuni
TTITLE6=Abel Street Stomp
TTITLE7=Take Your Time
EXTD=
EXTT0=
EXTT1=
EXTT2=
EXTT3=
EXTT4=
EXTT5=
EXTT6=
EXTT7=
PLAYORDER=
